<?xml version="1.0" encoding="UTF-8" standalone="no"?>
<!DOCTYPE svg PUBLIC "-//W3C//DTD SVG 1.1//EN" "http://www.w3.org/Graphics/SVG/1.1/DTD/svg11.dtd">
<svg width="100%" height="100%" viewBox="0 0 313 88" version="1.1" xmlns="http://www.w3.org/2000/svg" xmlns:xlink="http://www.w3.org/1999/xlink" xml:space="preserve" xmlns:serif="http://www.serif.com/" style="fill-rule:evenodd;clip-rule:evenodd;stroke-linejoin:round;stroke-miterlimit:1.41421;">
    <g transform="matrix(1,0,0,1,-3005.62,-8323.91)">
        <g transform="matrix(4.16673,0,0,1.31772,1071.62,7273.76)">
            <g transform="matrix(0.390625,0,0,1.23519,-2411.73,-7471.64)">
                <path d="M7527.78,6694.3C7537.87,6694.39 7547.66,6700.65 7551.92,6709.8C7555.32,6717.07 7555.22,6725.86 7551.64,6733.05C7547.25,6741.88 7537.82,6747.84 7527.78,6747.95C7481.48,6748.09 7435.19,6748.09 7388.9,6747.95C7376.62,6747.82 7364.9,6738.38 7362.66,6725.87C7361.14,6717.36 7364.01,6708.19 7370.22,6702.05C7375.14,6697.18 7381.97,6694.36 7388.9,6694.3C7435.19,6694.17 7481.48,6694.17 7527.78,6694.3ZM7389.07,6695.53C7376.83,6695.56 7365.52,6705.26 7363.74,6717.39C7362.16,6728.19 7368.13,6739.66 7378.4,6744.4C7381.68,6745.91 7385.28,6746.69 7388.91,6746.73C7435.19,6746.86 7481.48,6746.86 7527.77,6746.73C7540.7,6746.58 7552.57,6735.84 7553.18,6722.28C7553.77,6709 7542.79,6696.18 7528.76,6695.56C7528.32,6695.54 7527.77,6695.53 7527.77,6695.53C7481.54,6695.4 7435.31,6695.53 7389.07,6695.53Z" style="fill:rgb(0,149,218);fill-rule:nonzero;"/>
            </g>
        </g>
    </g>
</svg>
