<?xml version="1.0" encoding="UTF-8" standalone="no"?>
<!DOCTYPE svg PUBLIC "-//W3C//DTD SVG 1.1//EN" "http://www.w3.org/Graphics/SVG/1.1/DTD/svg11.dtd">
<svg width="100%" height="100%" viewBox="0 0 122 122" version="1.1" xmlns="http://www.w3.org/2000/svg" xmlns:xlink="http://www.w3.org/1999/xlink" xml:space="preserve" xmlns:serif="http://www.serif.com/" style="fill-rule:evenodd;clip-rule:evenodd;stroke-linejoin:round;stroke-miterlimit:1.41421;">
    <g transform="matrix(1,0,0,1,-501.12,-1100.9)">
        <path d="M562.483,1100.9C584.873,1101.11 606.518,1114.54 616.578,1134.47C624.973,1151.1 625.144,1171.59 617.069,1188.34C605.57,1212.19 577.505,1226.98 550.548,1221.81C525.778,1217.06 505.186,1195.45 501.681,1170.42C498.988,1151.21 506.123,1130.84 520.276,1117.5C531.369,1107.05 546.45,1101.05 561.694,1100.9C561.957,1100.9 562.22,1100.9 562.483,1100.9ZM561.707,1102.9C540.417,1103.1 519.794,1115.63 509.876,1134.42C501.381,1150.51 500.923,1170.65 508.755,1187.14C519.795,1210.4 546.989,1224.88 573.252,1219.84C597.203,1215.25 617.126,1194.34 620.516,1170.15C623.12,1151.56 616.22,1131.86 602.529,1118.96C591.799,1108.85 577.22,1103.04 562.47,1102.9C562.216,1102.9 561.961,1102.9 561.707,1102.9ZM564.999,1194.33L554.108,1194.33L554.108,1157.29L550.183,1156.67C549.331,1156.53 548.647,1156.23 548.133,1155.79C547.618,1155.35 547.361,1154.73 547.361,1153.94L547.361,1149.49L554.108,1149.49L554.108,1146.14C554.108,1143.55 554.497,1141.23 555.276,1139.17C556.055,1137.11 557.172,1135.36 558.627,1133.92C560.082,1132.48 561.853,1131.38 563.94,1130.62C566.027,1129.85 568.379,1129.47 570.995,1129.47C573.082,1129.47 575.023,1129.75 576.816,1130.31L576.595,1135.77C576.536,1136.63 576.14,1137.16 575.405,1137.36C574.67,1137.57 573.817,1137.67 572.847,1137.67C571.554,1137.67 570.4,1137.81 569.386,1138.09C568.372,1138.37 567.512,1138.85 566.806,1139.54C566.101,1140.24 565.565,1141.15 565.197,1142.28C564.83,1143.41 564.646,1144.81 564.646,1146.49L564.646,1149.49L576.419,1149.49L576.419,1157.25L564.999,1157.25L564.999,1194.33Z" style="fill:white;"/>
    </g>
</svg>
