<?xml version="1.0" encoding="UTF-8" standalone="no"?>
<!DOCTYPE svg PUBLIC "-//W3C//DTD SVG 1.1//EN" "http://www.w3.org/Graphics/SVG/1.1/DTD/svg11.dtd">
<svg width="100%" height="100%" viewBox="0 0 122 122" version="1.1" xmlns="http://www.w3.org/2000/svg" xmlns:xlink="http://www.w3.org/1999/xlink" xml:space="preserve" xmlns:serif="http://www.serif.com/" style="fill-rule:evenodd;clip-rule:evenodd;stroke-linejoin:round;stroke-miterlimit:1.41421;">
    <g transform="matrix(1,0,0,1,-314.028,-1100.9)">
        <path d="M375.394,1100.9C397.654,1101.11 419.19,1114.37 429.322,1134.14C437.813,1150.7 438.12,1171.19 430.14,1188C418.727,1212.05 390.609,1227.01 363.46,1221.81C338.562,1217.03 317.903,1195.21 314.54,1170.04C311.968,1150.8 319.211,1130.51 333.455,1117.25C344.502,1106.97 359.362,1101.05 374.606,1100.9C374.869,1100.9 375.131,1100.9 375.394,1100.9ZM374.619,1102.9C353.328,1103.1 332.707,1115.63 322.788,1134.42C314.291,1150.51 313.834,1170.65 321.667,1187.14C332.707,1210.4 359.901,1224.88 386.164,1219.84C410.239,1215.23 430.225,1194.11 433.477,1169.78C435.949,1151.29 429.043,1131.77 415.441,1118.96C404.711,1108.85 390.132,1103.04 375.381,1102.9C375.127,1102.9 374.873,1102.9 374.619,1102.9ZM365.74,1161.67L345.635,1182.61L402.658,1188.04L376.84,1162.66L372.477,1166.13L365.74,1161.67ZM378.578,1161.03L406.091,1185.96L406.091,1137.67L378.578,1161.03ZM343.909,1179.69L364.346,1160.29L343.909,1146.59L343.909,1179.69ZM345,1145.05L370.889,1161.03L402.422,1136.85L345,1145.05Z" style="fill:white;"/>
    </g>
</svg>
