<?xml version="1.0" encoding="UTF-8" standalone="no"?>
<!DOCTYPE svg PUBLIC "-//W3C//DTD SVG 1.1//EN" "http://www.w3.org/Graphics/SVG/1.1/DTD/svg11.dtd">
<svg width="100%" height="100%" viewBox="0 0 122 122" version="1.1" xmlns="http://www.w3.org/2000/svg" xmlns:xlink="http://www.w3.org/1999/xlink" xml:space="preserve" xmlns:serif="http://www.serif.com/" style="fill-rule:evenodd;clip-rule:evenodd;stroke-linejoin:round;stroke-miterlimit:1.41421;">
    <g transform="matrix(1,0,0,1,-126.94,-1100.9)">
        <path d="M188.306,1100.9C210.342,1101.11 231.643,1114.07 241.893,1133.48C250.679,1150.13 251.151,1170.94 243.052,1188C231.638,1212.05 203.52,1227.01 176.371,1221.81C151.473,1217.03 130.815,1195.21 127.452,1170.04C124.897,1150.93 132.023,1130.76 146.099,1117.5C157.192,1107.05 172.273,1101.05 187.517,1100.9C187.78,1100.9 188.043,1100.9 188.306,1100.9ZM187.53,1102.9C166.24,1103.1 145.618,1115.63 135.699,1134.42C127.203,1150.51 126.746,1170.65 134.578,1187.14C145.619,1210.4 172.812,1224.88 199.075,1219.84C223.15,1215.23 243.137,1194.11 246.389,1169.78C248.908,1150.93 241.678,1131.06 227.573,1118.23C216.937,1108.57 202.801,1103.04 188.293,1102.9C188.039,1102.9 187.784,1102.9 187.53,1102.9ZM217.643,1179.73L217.343,1178.82C216.64,1176.72 214.322,1174.54 212.187,1173.95L204.304,1171.8C202.169,1171.22 199.122,1172 197.553,1173.57L194.702,1176.42C184.338,1173.61 176.207,1165.48 173.408,1155.12L176.26,1152.27C177.822,1150.7 178.603,1147.66 178.024,1145.52L175.875,1137.63C175.296,1135.5 173.095,1133.18 170.999,1132.48L170.101,1132.18C167.998,1131.47 164.997,1132.18 163.435,1133.75L159.164,1138.02C158.403,1138.78 157.914,1140.95 157.914,1140.95C157.771,1154.51 163.083,1167.56 172.666,1177.15C182.222,1186.7 195.229,1192.01 208.737,1191.89C208.809,1191.89 211.042,1191.42 211.803,1190.65L216.074,1186.38C217.636,1184.83 218.339,1181.83 217.643,1179.73Z" style="fill:white;"/>
    </g>
</svg>
