<svg viewBox="0 0 120 113" xmlns="http://www.w3.org/2000/svg" fill-rule="evenodd" clip-rule="evenodd" stroke-linejoin="round" stroke-miterlimit="1.414">
  <path d="M56.408 104.458v-56.58c.066-1.26 1.08-2.247 2.416-2.177 1.087.173 1.9 1.056 1.96 2.177v56.582l15.462-16.81c.446-.455.73-.708 1.688-.704 1.052.07 1.15.326 1.452.623.82.8.95 2.038.08 3.043l-19.26 20.936c-.942 1.183-2.413.99-3.22 0l-19.26-20.937c-.702-.81-.6-1.144-.575-1.605.07-1.19.63-2.155 2.377-2.055.545.065 1.034.305 1.418.698l15.463 16.808zm-8.025-28.902H22.22C9.922 75.556 0 65.606 0 53.333c0-9.115 5.51-16.97 13.386-20.393-.035-.605-.053-1.215-.053-1.83C13.333 13.93 27.263 0 44.443 0c11.614 0 21.74 6.362 27.085 15.79 3.23-1.573 6.86-2.457 10.694-2.457 11.772 0 21.6 8.32 23.924 19.403C114.28 36.038 120 44.016 120 53.333c0 12.248-9.948 22.223-22.22 22.223H69.236c-1.272-.067-2.27-1.09-2.2-2.442.175-1.1 1.067-1.92 2.2-1.98l28.53-.023c9.825 0 17.79-7.978 17.79-17.777 0-8.302-5.714-15.275-13.403-17.23-.85-10.262-9.45-18.325-19.93-18.325-4.784 0-9.175 1.68-12.617 4.48C65.956 11.882 56.07 4.444 44.444 4.444c-14.727 0-26.666 11.94-26.666 26.667 0 1.674.154 3.312.45 4.9-7.896 1.82-13.784 8.9-13.784 17.323 0 9.82 7.99 17.778 17.79 17.778l26.15.024c1.132.06 2.024.88 2.198 1.98.07 1.35-.927 2.375-2.2 2.442z" fill="#0095da"/>
</svg>
