<svg viewBox="0 0 71 71" xmlns="http://www.w3.org/2000/svg" fill-rule="evenodd" clip-rule="evenodd" stroke-linejoin="round" stroke-miterlimit="1.414">
  <path d="M35.683 0c17.182.167 33.068 14.214 35.04 31.427C73.175 52.84 53.026 74.71 29.175 70.445 14.668 67.85 2.482 55.34.33 40.68-2.558 21.005 13.87.474 34.767.007c.306-.005.61-.007.916-.006zm-.44 3c-15.8.153-30.38 13.11-32.1 28.973-2.134 19.7 16.68 39.62 38.462 35.445C53.825 65.075 64.3 55.045 67.12 42.836c3.35-14.488-4.682-30.81-18.297-36.964-4.247-1.92-8.906-2.885-13.58-2.872zm2.04 52.774H30.47V32.61l-2.453-.387c-.533-.092-.96-.276-1.283-.552-.32-.274-.482-.66-.482-1.157v-2.785h4.22v-2.096c0-1.618.243-3.07.73-4.357.487-1.287 1.186-2.38 2.096-3.282.91-.9 2.018-1.59 3.323-2.068 1.306-.478 2.777-.717 4.413-.717 1.306 0 2.52.174 3.64.524l-.137 3.42c-.037.532-.285.863-.745.992-.46.13-.992.193-1.598.193-.81 0-1.53.087-2.165.262-.635.174-1.172.477-1.614.91-.44.43-.776 1-1.006 1.71-.23.707-.345 1.585-.345 2.633v1.875h7.363v4.853h-7.142v23.194z" fill="#0095da"/>
</svg>
