<svg viewBox="0 0 64 74" xmlns="http://www.w3.org/2000/svg" fill-rule="evenodd" clip-rule="evenodd" stroke-linejoin="round" stroke-miterlimit="1.414">
  <path d="M31.624 50.16c-.408 0-.815.008-1.222.024-.806.03-1.61.088-2.414.175-2.104.226-4.186.648-6.212 1.26-2.986.904-5.845 2.22-8.47 3.905-1.31.84-2.56 1.768-3.74 2.78C8.34 59.352 7.19 60.488 6.128 61.7c-1.883 2.148-3.492 4.533-4.783 7.08-.317.628-.615 1.263-.893 1.908-.076.174-.15.35-.223.525l-.063.15c-.022.056-.045.11-.064.167-.036.103-.063.21-.08.318-.04.245-.028.498.033.74.058.23.16.45.3.644.13.178.29.332.472.453.17.114.36.2.56.252.177.046.362.066.545.06.24-.01.475-.067.693-.166.204-.092.392-.22.55-.38.114-.114.212-.242.293-.38.038-.07.073-.14.104-.214.05-.12.098-.24.148-.358.196-.467.402-.93.62-1.386.452-.946.952-1.87 1.498-2.764 1.22-1.997 2.67-3.852 4.314-5.515 1.073-1.085 2.228-2.088 3.453-2.998 1.185-.882 2.435-1.676 3.736-2.373 1.965-1.053 4.045-1.887 6.193-2.482 1.385-.384 2.797-.67 4.222-.854 3.134-.404 6.33-.324 9.44.24 2.228.407 4.412 1.062 6.495 1.954 2.42 1.037 4.702 2.39 6.77 4.02 1.494 1.174 2.875 2.49 4.12 3.924 1.216 1.4 2.303 2.912 3.244 4.51.52.886.996 1.797 1.426 2.73.14.306.277.615.408.927.04.09.076.178.113.268l.076.186c.012.026.024.053.038.08.09.178.205.34.345.482.257.258.59.436.946.51.178.037.364.047.547.03.195-.02.387-.07.567-.147.19-.084.37-.2.522-.34.17-.16.31-.35.41-.558.107-.222.17-.466.183-.712.008-.175-.008-.35-.05-.522-.02-.084-.045-.167-.076-.248-.044-.11-.09-.217-.133-.325-.156-.376-.318-.75-.488-1.12-.335-.732-.697-1.454-1.083-2.162-1.026-1.88-2.227-3.663-3.586-5.318-1.075-1.31-2.248-2.538-3.506-3.67-1.27-1.146-2.628-2.194-4.056-3.133-1.45-.954-2.976-1.796-4.556-2.516-1.424-.648-2.893-1.198-4.392-1.644-1.978-.59-4.01-.996-6.062-1.217-.775-.085-1.553-.142-2.333-.173-.408-.016-.814-.025-1.22-.027h-.246zM31.634 0c-.4.002-.8.013-1.2.036-.784.045-1.568.132-2.344.26-1.847.308-3.653.854-5.36 1.62-2.218.997-4.265 2.363-6.038 4.025-.932.873-1.788 1.826-2.556 2.845-.757 1.007-1.43 2.078-2.004 3.198-.932 1.82-1.608 3.768-2 5.775-.46 2.352-.53 4.78-.213 7.156.148 1.106.38 2.2.696 3.272.323 1.095.732 2.164 1.22 3.195.562 1.18 1.227 2.31 1.987 3.37.77 1.073 1.634 2.078 2.582 2.998 1.01.98 2.116 1.866 3.295 2.638 1.114.73 2.293 1.357 3.52 1.872 1.37.576 2.802 1.01 4.262 1.297 1.367.267 2.76.402 4.152.407 1.418.004 2.835-.127 4.227-.394 1.44-.277 2.852-.7 4.207-1.26 1.21-.498 2.375-1.107 3.476-1.814 1.187-.76 2.3-1.636 3.32-2.61.908-.865 1.742-1.807 2.49-2.814.818-1.1 1.534-2.276 2.134-3.51.508-1.045.933-2.13 1.27-3.244.314-1.046.55-2.115.706-3.197.337-2.35.293-4.757-.133-7.093-.367-2.014-1.02-3.974-1.932-5.806-1.12-2.25-2.63-4.306-4.44-6.052-.935-.902-1.95-1.722-3.027-2.446-.992-.667-2.04-1.253-3.127-1.75C39.08 1.185 37.256.625 35.388.308c-.752-.127-1.51-.215-2.273-.263-.398-.026-.797-.04-1.197-.044h-.284zm.13 3.718c.332.002.664.01.996.03.672.04 1.34.114 2.005.227 1.588.27 3.14.75 4.6 1.43 1.118.517 2.182 1.15 3.173 1.88 1 .74 1.923 1.58 2.753 2.504 1.277 1.42 2.33 3.038 3.107 4.783.603 1.352 1.038 2.778 1.295 4.236.4 2.28.365 4.636-.108 6.902-.376 1.806-1.03 3.55-1.93 5.16-.966 1.726-2.213 3.292-3.676 4.62-.785.715-1.632 1.36-2.53 1.93-.95.6-1.955 1.115-3 1.532-1.08.43-2.203.757-3.346.973-1.12.21-2.258.316-3.397.316-1.12 0-2.24-.102-3.34-.306-1.163-.216-2.304-.545-3.402-.983-1.01-.403-1.985-.897-2.91-1.474-.93-.582-1.808-1.248-2.62-1.987-1.464-1.33-2.71-2.895-3.676-4.62-.9-1.61-1.554-3.355-1.93-5.16-.477-2.286-.51-4.663-.098-6.96.26-1.457.7-2.88 1.306-4.23.775-1.726 1.82-3.328 3.083-4.734.805-.898 1.7-1.716 2.665-2.44 1-.747 2.077-1.394 3.21-1.923 1.44-.674 2.97-1.157 4.538-1.433.662-.116 1.33-.196 2.002-.24.35-.02.7-.032 1.052-.035.06-.002.118-.002.177-.002z" fill="#0095da"/>
</svg>
