<svg viewBox="0 0 82 69" xmlns="http://www.w3.org/2000/svg" fill-rule="evenodd" clip-rule="evenodd" stroke-linejoin="round" stroke-miterlimit="1.414">
  <path d="M44.666 0c.237 0 .473.003.71.008.43.01.86.025 1.29.048 1.31.07 2.614.205 3.91.405 3.49.54 6.914 1.558 10.148 3.044 1.9.873 3.732 1.907 5.47 3.095 2.13 1.454 4.116 3.14 5.903 5.037 1.34 1.422 2.57 2.963 3.658 4.607 1.19 1.796 2.213 3.716 3.037 5.728.677 1.654 1.218 3.37 1.61 5.122.39 1.742.634 3.52.725 5.308.086 1.668.04 3.343-.135 5.002-.147 1.382-.384 2.752-.71 4.1-.306 1.265-.69 2.51-1.145 3.725-.456 1.212-.984 2.395-1.578 3.54-1.02 1.964-2.23 3.815-3.6 5.526-1.17 1.464-2.453 2.827-3.83 4.076-1.163 1.057-2.39 2.034-3.673 2.926-2.243 1.56-4.646 2.863-7.15 3.892-2.037.837-4.14 1.494-6.28 1.968-1.718.38-3.46.642-5.21.788-1.457.12-2.92.16-4.38.12-2.95-.08-5.896-.484-8.762-1.237l-.058-.018c-.068-.022-.136-.048-.2-.08-.133-.063-.257-.147-.367-.247-.15-.138-.275-.306-.365-.493-.088-.18-.144-.38-.163-.582-.017-.175-.005-.352.032-.522.04-.18.107-.354.202-.51.124-.205.293-.38.49-.508.2-.132.43-.215.665-.24.115-.01.23-.01.343.006.052.007.103.017.154.03.1.024.197.05.296.075.788.198 1.58.37 2.38.513 2.034.365 4.097.553 6.16.57 2.356.017 4.713-.19 7.033-.625 2.988-.562 5.913-1.506 8.68-2.826 1.01-.483 2-1.016 2.965-1.597 1.17-.707 2.3-1.485 3.383-2.334 1.262-.99 2.457-2.075 3.568-3.25 1.092-1.153 2.102-2.393 3.012-3.71.97-1.403 1.826-2.893 2.547-4.454.532-1.15.99-2.34 1.368-3.556.38-1.223.68-2.474.89-3.74.346-2.07.46-4.178.345-6.273-.095-1.717-.347-3.424-.75-5.09-.315-1.304-.723-2.584-1.215-3.825-.387-.976-.826-1.928-1.313-2.852-.4-.76-.83-1.5-1.293-2.218-1.546-2.41-3.42-4.58-5.524-6.463-1.707-1.528-3.565-2.867-5.526-4.005-.947-.55-1.918-1.053-2.91-1.508-2.6-1.195-5.333-2.062-8.124-2.595-2.257-.43-4.55-.644-6.845-.644-2.294 0-4.588.213-6.845.644-2.888.552-5.716 1.46-8.397 2.72-1.22.576-2.413 1.223-3.565 1.942-2.32 1.447-4.482 3.185-6.398 5.187-1.164 1.217-2.236 2.53-3.197 3.93-1.09 1.586-2.035 3.285-2.804 5.07-.478 1.107-.888 2.247-1.224 3.41-.428 1.483-.736 3.002-.917 4.54-.24 2.035-.26 4.1-.06 6.14.106 1.112.28 2.215.517 3.304.248 1.14.567 2.26.952 3.358.472 1.34 1.042 2.64 1.7 3.887.584 1.103 1.235 2.166 1.945 3.184.452.648.928 1.277 1.426 1.887.162.2.326.396.493.59.055.066.11.13.167.195l.074.085.045.055c.083.11.155.23.21.36.076.175.122.366.136.56.012.168-.002.34-.04.503-.01.052-.025.103-.042.153-.017.053-.036.104-.054.156-.03.086-.063.17-.095.257-.112.295-.23.588-.354.878-.546 1.27-1.224 2.478-2.04 3.576-.358.48-.743.94-1.152 1.376-.21.224-.43.44-.652.65l-.07.1-.03.122.018.124.06.107.097.073c.038.01.076.022.115.03.02.003.043 0 .065.002l.2.006c.18.005.362.008.543.008.636 0 1.272-.03 1.906-.09.944-.092 1.882-.254 2.802-.493.887-.23 1.756-.53 2.596-.907.472-.212.935-.447 1.386-.705.14-.08.28-.163.416-.247.042-.025.084-.05.125-.077l.118-.073.053-.03c.06-.032.118-.06.18-.084.123-.048.253-.08.385-.092.272-.026.55.025.796.147.16.08.306.187.432.317.13.136.238.296.317.47.06.14.105.29.127.442.03.2.022.405-.02.603-.044.204-.125.4-.238.57-.088.134-.194.252-.314.352-.052.043-.107.083-.164.12l-.127.078c-.295.183-.594.358-.898.524-.608.332-1.234.63-1.872.89-.34.14-.684.27-1.03.39-2.12.732-4.347 1.092-6.575 1.136-.853.017-1.708-.013-2.56-.088-.328-.03-.657-.065-.986-.11-.1-.012-.198-.026-.297-.04-.048-.007-.096-.014-.144-.023-.056-.01-.112-.022-.167-.036-.32-.08-.626-.23-.893-.433-.23-.177-.43-.396-.59-.645-.172-.268-.296-.57-.363-.885-.072-.34-.082-.694-.027-1.036.043-.268.126-.528.246-.768.15-.308.36-.58.61-.803.058-.05.117-.1.18-.145.04-.032.086-.063.13-.093l.09-.066.136-.1c.21-.154.415-.315.615-.483.385-.32.75-.67 1.095-1.038.36-.385.695-.795 1.005-1.224.317-.438.61-.897.874-1.372.184-.33.356-.67.516-1.014.043-.092.085-.185.126-.278.025-.058.048-.1.05-.172.006-.096-.02-.147-.07-.223-.017-.027-.038-.048-.057-.07l-.113-.14-.166-.208c-.272-.348-.54-.7-.8-1.06-.5-.688-.976-1.395-1.424-2.122-1.26-2.04-2.304-4.23-3.096-6.515-.508-1.467-.912-2.973-1.205-4.504-.308-1.61-.492-3.247-.546-4.89-.09-2.717.17-5.446.772-8.09.508-2.23 1.258-4.4 2.22-6.458.83-1.78 1.82-3.475 2.94-5.067.607-.862 1.252-1.693 1.932-2.492 2.46-2.893 5.368-5.352 8.548-7.313 2.372-1.463 4.896-2.65 7.51-3.55 2.644-.913 5.38-1.53 8.147-1.85.963-.11 1.93-.186 2.898-.226.51-.02 1.02-.032 1.53-.034h.238zm19.042 45.537l-.193-.588c-.453-1.352-1.947-2.762-3.324-3.14l-5.08-1.39c-1.378-.373-3.342.13-4.354 1.142l-1.838 1.84c-6.68-1.81-11.923-7.052-13.728-13.734l1.838-1.838c1.007-1.007 1.51-2.972 1.138-4.352l-1.386-5.083c-.373-1.376-1.792-2.87-3.143-3.324l-.58-.192c-1.355-.453-3.29.004-4.297 1.016l-2.753 2.753c-.49.487-.806 1.884-.806 1.89-.09 8.737 3.333 17.152 9.51 23.334 6.162 6.162 14.548 9.583 23.257 9.507.046 0 1.485-.307 1.976-.798l2.754-2.754c1.007-1.003 1.46-2.938 1.01-4.29zM5.26.45C2.358.45 0 2.808 0 5.71c0 2.905 2.357 5.262 5.26 5.262 2.904 0 5.262-2.357 5.262-5.26 0-2.904-2.358-5.262-5.26-5.262z" fill="#0095da"/>
</svg>
