<svg viewBox="0 0 72 70" xmlns="http://www.w3.org/2000/svg" fill-rule="evenodd" clip-rule="evenodd" stroke-linejoin="round" stroke-miterlimit="1.414">
  <path d="M34.798.737C36.898.254 39.038 0 41.19 0c1.357 0 2.68.1 3.963.297 6.49.99 11.942 4.404 15.77 9.435.162.213.32.428.477.647.142.104.282.21.422.317 5.598 4.3 9.283 10.375 10.035 17.477.094.897.143 1.8.143 2.708 0 2-.228 3.978-.662 5.915-.62 7.566-4.45 14.37-10.326 19.41-.336.288-.678.57-1.027.846-.437.525-.89 1.035-1.356 1.53-5.526 5.865-13.064 9.595-21.42 9.925-2.102.484-4.244.74-6.4.74-1.357 0-2.68-.102-3.963-.298-6.49-.99-11.942-4.404-15.77-9.435-.162-.213-.32-.43-.477-.648-.142-.104-.282-.21-.422-.317C4.58 54.25.895 48.174.143 41.073.05 40.176 0 39.273 0 38.365c0-2 .228-3.978.662-5.916.62-7.567 4.45-14.37 10.326-19.41.334-.287.675-.568 1.023-.843.44-.526.892-1.038 1.36-1.535C18.897 4.796 26.438 1.065 34.798.737zM14.15 61.125c3.422 3.463 7.82 5.795 12.885 6.568 1.013.155 2.055.247 3.122.274-4.135-.81-7.992-2.463-11.405-4.785-1.613-.58-3.15-1.268-4.602-2.057zm30.975 2.956c-2.906.666-5.96 1.02-9.108 1.023-1.52.16-3.007.237-4.46.237-2.594 0-5.104-.243-7.498-.707 3.67 1.65 7.704 2.565 11.94 2.565.456 0 .91-.01 1.36-.032 2.676-.66 5.284-1.706 7.765-3.085zm9.29-3.415c-1.578.828-3.238 1.553-4.967 2.164-1.71 1.235-3.502 2.315-5.353 3.22 3.782-1.1 7.272-2.947 10.32-5.385zM36.018 5.415c-6.1.653-11.833 2.59-16.817 5.448l-.19.183C12.777 17.094 8.213 25.444 6.792 34.668c.012 8.046 3.28 15.33 8.556 20.608 5.282 5.28 12.577 8.55 20.634 8.555 6.1-.65 11.834-2.588 16.818-5.446l.19-.183c6.234-6.047 10.798-14.398 12.218-23.623-.013-8.046-3.28-15.33-8.556-20.606-5.282-5.28-12.578-8.55-20.635-8.555zm-18.435 55.25c.64.51 1.3.996 1.977 1.455 1.472.51 3.01.924 4.6 1.238-2.313-.706-4.515-1.612-6.578-2.694zm-7.807-5.55c.526.997 1.107 1.95 1.74 2.85 1.05.765 2.167 1.467 3.343 2.1-.51-.477-1.007-.97-1.488-1.482-.467-.495-.92-1.006-1.357-1.53-.348-.277-.69-.56-1.025-.846-.415-.356-.82-.72-1.213-1.093zm-3.413-13.35c.02.522.05 1.04.09 1.554 1.272 4.892 3.592 9.322 6.686 13 1.85 1.43 3.886 2.685 6.07 3.742-1.716-1.135-3.31-2.44-4.76-3.887-3.903-3.904-6.753-8.862-8.086-14.41zm53.73 13c-1.728 1.496-3.606 2.87-5.61 4.095-.47.36-.952.705-1.443 1.037l-.106.096c2.13-1.042 4.116-2.274 5.926-3.67.425-.506.836-1.025 1.23-1.558zM1.46 41.44c.692 5.44 3.214 10.23 7.044 13.984-.516-1.007-.98-2.057-1.385-3.144-2.654-3.208-4.605-6.877-5.657-10.84zm65.173-7.903c-.047.375-.098.752-.156 1.13-.01 6.67-2.163 12.838-5.806 17.852.804-.77 1.568-1.57 2.29-2.393 2.352-4.61 3.687-9.89 3.687-15.504 0-.363-.004-.725-.015-1.086zm.346 13.395c-.836 1.28-1.767 2.52-2.782 3.707-.224.44-.457.877-.698 1.307 1.346-1.56 2.515-3.24 3.48-5.015zm-58.92 4.21c.058.166.117.33.177.495l.26.307c-.148-.265-.293-.533-.436-.802zM5.786 23.47c-1.81 2.877-3.133 5.965-3.862 9.168-.052.656-.078 1.318-.078 1.985 0 5.06 1.506 9.82 4.155 13.97-.36-1.51-.62-3.076-.773-4.69-.79-2.95-1.214-6.063-1.214-9.28 0-3.907.624-7.66 1.772-11.153zM66 20.652c.36 1.51.62 3.08.773 4.694.79 2.948 1.213 6.06 1.213 9.277 0 3.908-.625 7.662-1.773 11.157 1.812-2.878 3.135-5.967 3.864-9.172.052-.656.078-1.317.078-1.985 0-5.06-1.506-9.82-4.155-13.97zm-42.154 14.74c-.2.426-.48.824-.844 1.196-.747.764-1.613 1.157-2.596 1.17-1.75.015-3.008-.558-3.773-1.72v3.695c0 .46-.272.95-.82 1.47-.765.718-1.75 1.063-2.952 1.032V31.68c-.07-.76 1.188-2.186 2.625-2.186-1.804-.366-2.678-1.286-2.624-2.755h5.66c.673 0 1.34.06 1.994.184 2.442.458 3.664 1.66 3.664 3.603v.105c.17-.18.405-.35.707-.52.565-.32 1.148-.526 1.75-.618-.62-.045-1.185-.33-1.695-.85-.438-.443-.756-.948-.956-1.515l-.138-.39h6.07c1.767 0 3.196.413 4.29 1.24.63.487 1.077 1.068 1.34 1.74.215-.835.783-1.547 1.704-2.132 1.093-.704 2.378-1.055 3.853-1.055 1.477 0 2.76.36 3.854 1.08.195.124.373.255.536.394l-.437-.718c.53-.46 1.277-.696 2.24-.71.51-.018 1.033.15 1.575.503.48.306.846.673 1.097 1.1l1.89 3.308 3.555-4.958c1.42.918 2.143 1.808 2.175 2.682.02.505-.214 1.08-.698 1.72L54.15 34.66l4.99 7.298c-.678.17-1.18.284-1.504.345-.43.076-.934.038-1.51-.114-.856-.232-1.52-.676-1.99-1.333l-2.48-3.443-3.717 4.958c-.978-.432-1.59-1.098-1.834-2-.29.373-.67.71-1.15 1.013-1.092.705-2.376 1.057-3.853 1.057-1.475 0-2.76-.352-3.853-1.057-.652-.414-1.127-.89-1.426-1.432 0 .062 0 .127-.006.192-.072.92-.647 1.776-1.722 2.572L27.7 35.624v3.856c0 1.837-1.284 2.755-3.854 2.755v-6.842zm19.144 2.022V31.56c0-.52-.155-.98-.465-1.378-.346-.458-.82-.688-1.422-.688-.6 0-1.075.23-1.42.688-.31.4-.466.858-.466 1.378v5.854c0 .52.155.98.465 1.378.346.458.82.688 1.42.688.603 0 1.077-.23 1.423-.688.31-.398.465-.857.465-1.378zm-7.545-4.196c-.13.307-.3.596-.502.868-.62.84-1.475 1.353-2.568 1.538l3.034 3.1.052.057c-.01-.108-.017-.22-.017-.332v-5.23zm11.266-3.21c.035.19.052.385.052.588v7.27l2.613-3.482-2.664-4.376zm-35.383-13.28c-.805.77-1.57 1.57-2.293 2.395-2.35 4.61-3.686 9.89-3.686 15.5 0 .365.006.728.017 1.09.046-.377.098-.755.156-1.135.01-6.67 2.163-12.837 5.807-17.85zm7.192 12.766h-1.887v3.65c0 .52.155.98.465 1.378.346.46.82.69 1.42.69.53 0 .977-.166 1.34-.495.364-.33.548-.715.548-1.158v-2.412c0-.95-.456-1.486-1.367-1.608-.22-.03-.393-.046-.52-.046zm11.395 0h-2.297v2.066c0 .597.2 1.132.602 1.606.455.552 1.02.82 1.695.806.673-.017 1.175-.292 1.503-.827.29-.46.42-.988.383-1.585-.035-.535-.2-.994-.49-1.378-.348-.458-.812-.688-1.395-.688zm33.578-15.67c.517 1.006.98 2.055 1.386 3.143 2.654 3.208 4.605 6.877 5.657 10.84-.69-5.44-3.213-10.23-7.044-13.984zm-10.7-4.64c1.715 1.135 3.31 2.44 4.758 3.888 3.905 3.904 6.755 8.862 8.088 14.41-.02-.522-.05-1.04-.09-1.552-1.272-4.893-3.59-9.324-6.685-13.004-1.85-1.428-3.886-2.685-6.07-3.742zm-44.296 8.12c-1.345 1.56-2.512 3.236-3.478 5.01.836-1.28 1.765-2.517 2.78-3.703.223-.44.455-.876.697-1.305zm55.005-.002c.15.266.294.533.437.803l-.177-.495-.26-.308zM19.066 9.254c-2.132 1.042-4.12 2.276-5.93 3.674-.426.505-.836 1.024-1.23 1.557 1.727-1.498 3.607-2.872 5.613-4.1.47-.358.95-.704 1.44-1.036.036-.033.07-.065.106-.096zm38.078-.072c.51.477 1.005.97 1.485 1.48.467.496.92 1.008 1.357 1.533.348.276.69.558 1.025.845.414.355.82.72 1.212 1.092-.525-.997-1.107-1.95-1.74-2.85-1.05-.765-2.165-1.467-3.34-2.1zm-29.23-5.988c-3.79 1.098-7.284 2.95-10.336 5.39 1.58-.828 3.243-1.555 4.974-2.166 1.713-1.238 3.507-2.32 5.36-3.224zM47.84 5.89c2.314.705 4.516 1.61 6.58 2.694-.64-.512-1.3-.998-1.977-1.456-1.473-.51-3.01-.925-4.602-1.24zm-5.99-4.61c4.134.81 7.99 2.464 11.4 4.786 1.612.58 3.15 1.267 4.6 2.056-3.422-3.463-7.82-5.795-12.885-6.568-1.01-.155-2.05-.247-3.114-.274zm6.094 3.334C44.274 2.962 40.237 2.048 36 2.048c-.454 0-.905.01-1.354.03-2.678.66-5.287 1.708-7.77 3.087 2.906-.665 5.958-1.02 9.106-1.02 1.52-.16 3.008-.238 4.46-.238 2.596 0 5.107.243 7.502.707z" fill="#0095da"/>
</svg>
