<svg viewBox="0 0 456 450" xmlns="http://www.w3.org/2000/svg" fill-rule="evenodd" clip-rule="evenodd" stroke-linejoin="round" stroke-miterlimit="1.414">
  <path d="M451.37 170.256c2.017 1.347 2.04 1.37 3.387 3.386l.476 2.395v223.917c.007.276.012.55.016.827.12 13.588-2.153 28.57-11.883 37.5-9.306 8.54-23.567 10.376-36.588 11.313-2.59.186-5.182.304-7.776.333-41.958.166-83.916 0-125.874 0-13.145-.05-26.842-1.515-38.076-7.2-14.598-7.388-18.882-26.936-18.444-42.764V176.037l.475-2.395c.452-.676.78-1.454 1.357-2.03 1.585-1.585 2.352-1.42 4.424-1.832h226.11l2.395.476zm-331.245 273.47l82.657-.017 1.197.237c.688.46 1.525.855 1.93 2.89l-.237 1.197-.678 1.015-1.015.678-1.197.238L50.297 450c-13.327-.44-27.21-3.723-37.015-13.684C4.102 426.99.51 413.198 0 399.903V58.71c.236-1.19.243-1.205.916-2.213l1.015-.678 1.198-.24h343.61l1.196.24 1.015.677.677 1.015.238 1.197v83.108c-.236 1.19-.242 1.204-.916 2.212l-1.016.678-1.197.238-1.197-.238-1.015-.678-.678-1.015-.238-1.197v-7.288c-21.29-7.856-44.298-12.15-68.303-12.164-41.335 4.427-80.182 17.568-113.954 36.965-.43.414-.86.828-1.288 1.244-42.242 41.04-73.17 97.703-82.793 160.292.068 46.424 16.083 89.11 42.853 122.86zM343.61 61.837H6.256v337.947c.05 1.335.13 2.67.245 4 .093 1.076.208 2.15.348 3.22 1.503 11.463 6.642 23.273 16.852 29.718 7.766 4.903 17.25 6.662 26.406 7.013l.292.01 11.86-.003c-16.392-23.093-26.932-49.952-30.043-79.408-.643-6.086-.972-12.22-.972-18.376 0-13.57 1.542-26.996 4.487-40.143 4.2-51.342 30.15-97.502 69.972-131.708 2.265-1.946 4.575-3.853 6.93-5.72 2.97-3.573 6.04-7.046 9.212-10.416 37.453-39.81 88.55-65.128 145.2-67.35 14.23-3.28 28.727-5.003 43.318-5.003 9.193 0 18.158.687 26.857 2.016 2.147.33 4.277.696 6.39 1.102V61.837zm-262.826 381.9c-.437-1.113-.865-2.232-1.285-3.357-17.992-21.77-31.21-46.663-38.342-73.555 3.643 28.72 14.795 54.767 31.79 76.913l7.836-.002zm28.48-.006c-16.286-21.964-28.327-47.27-34.906-74.705.126 3.548.33 7.065.61 10.55 6.006 23.127 15.455 44.734 27.725 64.156h6.57zM85.87 432.656c.39 1.126.786 2.247 1.19 3.36.586.7 1.176 1.394 1.772 2.085-1.01-1.798-1.997-3.614-2.96-5.444zm356.85-250.363H229.122v217.884c-.373 12.048.93 25.994 11.582 31.384 9.658 4.888 21.12 5.684 31.847 5.85l.383.003c41.992.167 83.985.166 125.977 0 11.93-.13 24.89-.827 34.31-7.05 8.7-5.75 9.77-19.99 9.505-30.026l-.005-218.044zM70.448 244.88c-12.276 19.52-21.233 40.48-26.174 62.214-.35 4.453-.527 8.945-.527 13.473 0 34.332 10.206 66.637 28.157 94.802-2.445-10.25-4.206-20.88-5.238-31.832-5.357-20.016-8.224-41.142-8.224-62.975 0-26.51 4.227-51.978 12.006-75.682zm243.328 138.282c3.425 0 6.207 2.78 6.207 6.207 0 3.424-2.782 6.206-6.207 6.206-3.426 0-6.207-2.782-6.207-6.207 0-3.427 2.78-6.208 6.206-6.208zm44.29 0c3.426 0 6.208 2.78 6.208 6.207 0 3.424-2.782 6.206-6.207 6.206-3.426 0-6.207-2.782-6.207-6.207 0-3.427 2.78-6.208 6.207-6.208zm-22.145 0c3.427 0 6.208 2.78 6.208 6.207 0 3.424-2.78 6.206-6.207 6.206-3.424 0-6.206-2.782-6.206-6.207 0-3.427 2.782-6.208 6.207-6.208zm-227.917-184.04c-5.458 5.23-10.646 10.656-15.542 16.26-15.93 31.277-24.976 67.104-24.976 105.18 0 2.477.038 4.944.115 7.4.313-2.558.665-5.127 1.055-7.706.067-45.256 14.656-87.11 39.348-121.135zm-19.183 3.922c-9.108 10.575-17.02 21.954-23.562 33.99 5.666-8.685 11.965-17.08 18.84-25.128 1.514-2.994 3.09-5.95 4.722-8.862zm294.052-2.563c2.187.363 2.383.99 2.9 1.715 1.76 2.46-.368 5.482-2.928 8.36-13.837 15.544-34.38 25.872-55.544 22.32-16.092-2.702-30.396-12.453-40.565-24.984-2.896-3.568-.4-7.994 3.388-7.385 2.107.338 3.452 2.643 5.108 4.504 10.824 12.165 26.21 20.89 42.467 20.214 16.236-.677 31.307-10.496 41.42-23.2 0 0 1.292-1.72 3.755-1.543zm-222.43-52.07c-14.443 7.077-27.91 15.45-40.19 24.933-2.876 3.428-5.655 6.95-8.33 10.565 11.706-10.164 24.443-19.49 38.04-27.815 3.185-2.436 6.442-4.78 9.77-7.032l.71-.65zm59.95-41.12c-25.664 7.453-49.35 20.012-70.03 36.585 10.71-5.63 21.975-10.557 33.704-14.707 11.606-8.398 23.762-15.736 36.326-21.877zm123.217 4.5c-21.426-7.953-44.45-12.276-68.418-12.276-3.074 0-6.132.07-9.173.212-18.147 4.473-35.83 11.582-52.656 20.94 19.692-4.51 40.375-6.92 61.706-6.93 10.298-1.08 20.385-1.606 30.223-1.606 13.122 0 25.922.918 38.316 2.692v-3.032zm0-14.267c-2.53-.513-5.086-.968-7.667-1.363-6.85-1.047-13.89-1.674-21.102-1.857 9.84 1.932 19.445 4.57 28.77 7.862v-4.642zM175.226 0c2.76.015 5.516.197 8.254.54 21.73 2.728 41.93 15.63 56.01 32.6 1.69 2.035 2.282 6.24-1.575 6.19-2.135-.026-4.103-3.303-6.242-5.637-16.21-17.69-39.656-29.86-63.983-27.01-21.015 2.46-40.054 15.097-53.2 31.274 0 0-2.41 2.217-4.412.8-2.45-1.733.008-5.446 2.894-8.65C128.61 12.743 150.53.382 173.992.006c.41-.006.823-.008 1.235-.007z" fill="#0095da"/>
</svg>
