<svg viewBox="0 0 448 450" xmlns="http://www.w3.org/2000/svg" fill-rule="evenodd" clip-rule="evenodd" stroke-linejoin="round" stroke-miterlimit="1.414">
  <path d="M136.568 3.472c.943-1.368 2.206-2.453 3.81-3.044 1.67-.614 3.51-.44 5.3-.254L345.155 52.53l1.497.657 1.457.742 1.956 1.956.014.027 92.786-46.45 1.152-.307 1.18.173 1.013.626.684.976.24 1.167v380.513c-.313 1.766-.962 2.125-1.49 2.563L349.84 449.63l-1.164.37-1.215-.133-1.056-.615-.198-.274c-1.7.587-3.614.63-5.512.436l-199.478-51.607c-.883-.392-1.843-.645-2.65-1.177-.436-.286-.842-.61-1.216-.964L2.627 448.894c-1.415.272-2.82-.362-2.605-2.394L132.812 5.06l.956-1.166.736-.223 2.064-.198zM4.955 443.747l130.18-51.434c-.024-.07-.05-.138-.073-.208-.313-.915-.317-1.908-.476-2.86V12.81L4.956 443.747zm346.8-382.078v379.18c-.052.338-.112.676-.18 1.01l89.663-50.963V16.873L351.755 61.67zM152.278 344.79v37.605l181.786 47.03V360.61c-24.286 11.345-51.05 16.85-79.068 15.32-6.04-.33-12.076-.972-18.085-1.94-13.24-2.135-26.1-5.75-38.467-10.69-16.385-4.035-31.838-10.31-46.165-18.51zm181.786-1.552c-23.37 13.276-48.838 21.726-75.23 24.36 26.72.897 52.194-4.967 75.23-16.427v-7.932zm-181.786-19.534v2.704c15.03 12.007 31.392 21.753 48.758 28.756 4.29 1.04 8.646 1.92 13.065 2.633 33.504 5.4 66.634.52 96.942-12.57-10.385.775-21.037.822-31.887.107-20.375 2.08-41.44 1.556-62.747-1.878-22.823-3.677-44.336-10.44-64.13-19.752zm181.786-5.39c-21.153 9.476-44.062 15.43-67.862 17.232 3.483.434 6.947.788 10.39 1.062 19.992-1.89 39.302-6.382 57.472-13.168v-5.127zm-181.786-7.31v2.785c20.09 9.908 42.1 17.063 65.552 20.842 2.416.39 4.83.74 7.24 1.052-2.45-.71-4.9-1.456-7.356-2.243-23.597-3.837-45.594-11.57-65.436-22.435zm181.786 21.94c-1.313.468-2.632.926-3.957 1.372 1.16-.2 2.316-.412 3.468-.632l.49-.293v-.447zm-181.786-40.23c20.612 13.565 43.25 24.62 67.387 32.415 40.435 6.453 79.963.05 114.4-16.195V67.91L152.277 20.196v272.517zm116.395-56.27c3.562.8 6.455 4.342 6.455 7.905 0 3.562-2.893 5.804-6.455 5.003-3.563-.8-6.455-4.344-6.455-7.906 0-3.563 2.892-5.805 6.455-5.004zm-23.03-5.18c3.562.802 6.454 4.345 6.454 7.907 0 3.564-2.892 5.806-6.455 5.005-3.562-.8-6.455-4.343-6.455-7.906 0-3.564 2.893-5.806 6.455-5.005zm-23.03-5.176c3.56.8 6.454 4.343 6.454 7.906 0 3.562-2.893 5.804-6.455 5.003-3.563-.8-6.455-4.343-6.455-7.906 0-3.56 2.892-5.803 6.455-5.002z" fill="#0095da"/>
</svg>
