<?xml version="1.0" encoding="UTF-8" standalone="no"?><!DOCTYPE svg PUBLIC "-//W3C//DTD SVG 1.1//EN" "http://www.w3.org/Graphics/SVG/1.1/DTD/svg11.dtd"><svg width="100%" height="100%" viewBox="0 0 468 450" version="1.1" xmlns="http://www.w3.org/2000/svg" xmlns:xlink="http://www.w3.org/1999/xlink" xml:space="preserve" xmlns:serif="http://www.serif.com/" style="fill-rule:evenodd;clip-rule:evenodd;stroke-linejoin:round;stroke-miterlimit:1.41421;"><path d="M226.132,4.79c13.645,-3.14 27.548,-4.79 41.541,-4.79c8.816,0 17.414,0.657 25.756,1.931c42.177,6.44 77.602,28.621 102.474,61.309c1.053,1.384 2.087,2.787 3.102,4.209c0.921,0.681 1.835,1.369 2.741,2.065c36.383,27.935 60.33,67.424 65.213,113.574c0.615,5.828 0.931,11.7 0.931,17.596c0,12.995 -1.479,25.852 -4.302,38.442c-4.028,49.168 -28.915,93.374 -67.103,126.133c-2.182,1.871 -4.408,3.706 -6.676,5.501c-2.84,3.41 -5.777,6.726 -8.808,9.943c-35.906,38.11 -84.889,62.353 -139.193,64.496c-13.661,3.146 -27.581,4.801 -41.59,4.801c-8.816,0 -17.413,-0.658 -25.756,-1.931c-42.178,-6.441 -77.602,-28.622 -102.476,-61.31c-1.053,-1.385 -2.088,-2.788 -3.103,-4.211c-0.921,-0.68 -1.834,-1.368 -2.74,-2.064c-36.382,-27.935 -60.329,-67.424 -65.211,-113.573c-0.617,-5.828 -0.932,-11.701 -0.932,-17.597c0,-12.996 1.479,-25.853 4.303,-38.443c4.027,-49.168 28.914,-93.373 67.102,-126.131c2.173,-1.863 4.388,-3.69 6.646,-5.478c2.847,-3.421 5.794,-6.747 8.835,-9.974c35.916,-38.123 84.92,-62.369 139.246,-64.498Zm-134.181,392.429c22.24,22.506 50.822,37.658 83.738,42.684c6.583,1.005 13.35,1.606 20.283,1.78c-26.872,-5.262 -51.933,-16.006 -74.116,-31.098c-10.481,-3.764 -20.476,-8.238 -29.905,-13.366Zm201.292,19.212c-18.887,4.322 -38.726,6.629 -59.185,6.637c-9.874,1.035 -19.546,1.539 -28.979,1.539c-16.863,0 -33.174,-1.579 -48.732,-4.591c23.848,10.731 50.072,16.666 77.596,16.666c2.964,0 5.913,-0.069 8.845,-0.205c17.388,-4.285 34.332,-11.09 50.455,-20.046Zm60.376,-22.204c-10.26,5.383 -21.047,10.094 -32.281,14.064c-11.115,8.031 -22.757,15.052 -34.788,20.928c24.577,-7.135 47.26,-19.146 67.069,-34.992Zm-119.565,-359.035c-39.641,4.24 -76.895,16.825 -109.281,35.4c-0.413,0.395 -0.825,0.792 -1.236,1.191c-40.509,39.3 -70.168,93.565 -79.398,153.503c0.078,52.292 21.312,99.634 55.599,133.921c34.324,34.323 81.731,55.566 134.089,55.598c39.645,-4.237 76.903,-16.823 109.292,-35.401c0.412,-0.394 0.823,-0.79 1.233,-1.187c40.512,-39.304 70.171,-93.573 79.399,-153.517c-0.08,-52.286 -21.314,-99.623 -55.598,-133.908c-34.326,-34.327 -81.737,-55.571 -134.099,-55.6Zm-119.796,359.028c4.158,3.327 8.443,6.485 12.846,9.464c9.571,3.306 19.557,6.003 29.896,8.044c-15.026,-4.584 -29.335,-10.473 -42.742,-17.508Zm-50.734,-36.065c3.416,6.484 7.194,12.672 11.311,18.534c6.823,4.969 14.077,9.527 21.716,13.643c-3.318,-3.101 -6.541,-6.312 -9.665,-9.629c-3.035,-3.22 -5.975,-6.54 -8.818,-9.953c-2.263,-1.792 -4.484,-3.623 -6.662,-5.491c-2.694,-2.312 -5.323,-4.68 -7.882,-7.104Zm-22.179,-86.749c0.121,3.398 0.317,6.766 0.585,10.102c8.267,31.793 23.339,60.584 43.446,84.493c12.03,9.277 25.252,17.443 39.445,24.311c-11.149,-7.375 -21.509,-15.847 -30.925,-25.263c-25.37,-25.37 -43.892,-57.59 -52.551,-93.643Zm349.151,84.484c-11.217,9.723 -23.42,18.645 -36.447,26.612c-3.057,2.334 -6.183,4.582 -9.376,6.739c-0.227,0.208 -0.454,0.416 -0.681,0.623c13.839,-6.772 26.744,-14.782 38.511,-23.854c2.761,-3.283 5.427,-6.658 7.993,-10.12Zm-380.99,-86.591c4.492,35.351 20.879,66.476 45.772,90.87c-3.357,-6.543 -6.364,-13.362 -9.003,-20.431c-17.253,-20.846 -29.929,-44.686 -36.769,-70.439Zm247.871,68.989c3.625,0 6.568,2.943 6.568,6.568c0,3.624 -2.943,6.567 -6.568,6.567c-3.624,0 -6.567,-2.943 -6.567,-6.567c0,-3.625 2.943,-6.568 6.567,-6.568Zm-23.432,0c3.625,0 6.568,2.943 6.568,6.568c0,3.624 -2.943,6.567 -6.568,6.567c-3.625,0 -6.568,-2.943 -6.568,-6.567c0,-3.625 2.943,-6.568 6.568,-6.568Zm-23.432,0c3.624,0 6.567,2.943 6.567,6.568c0,3.624 -2.943,6.567 -6.567,6.567c-3.625,0 -6.568,-2.943 -6.568,-6.567c0,-3.625 2.943,-6.568 6.568,-6.568Zm222.511,-120.349c-0.3,2.44 -0.637,4.889 -1.009,7.348c-0.062,43.339 -14.051,83.421 -37.73,116.008c5.226,-5.001 10.193,-10.189 14.881,-15.547c15.286,-29.959 23.966,-64.277 23.966,-100.752c0,-2.361 -0.036,-4.714 -0.108,-7.057Zm2.252,87.049c-5.44,8.326 -11.489,16.374 -18.09,24.091c-1.454,2.87 -2.967,5.702 -4.536,8.495c8.748,-10.138 16.345,-21.047 22.626,-32.586Zm-382.89,27.354c0.372,1.079 0.752,2.152 1.141,3.219c0.561,0.668 1.127,1.334 1.698,1.995c-0.968,-1.723 -1.914,-3.461 -2.839,-5.214Zm-14.791,-179.823c-11.773,18.694 -20.362,38.764 -25.101,59.578c-0.335,4.265 -0.505,8.567 -0.505,12.903c0,32.878 9.788,63.815 27.003,90.787c-2.345,-9.814 -4.034,-19.995 -5.023,-30.483c-5.138,-19.169 -7.888,-39.4 -7.888,-60.308c0,-25.387 4.055,-49.776 11.514,-72.477Zm391.302,-18.309c2.346,9.818 4.036,20.005 5.025,30.498c5.134,19.163 7.882,39.387 7.882,60.288c0,25.397 -4.057,49.795 -11.522,72.503c11.779,-18.7 20.373,-38.778 25.114,-59.601c0.335,-4.263 0.505,-8.564 0.505,-12.898c0,-32.879 -9.788,-63.818 -27.004,-90.79Zm-273.934,95.793c-1.294,2.759 -3.12,5.346 -5.488,7.761c-4.852,4.97 -10.481,7.518 -16.87,7.612c-11.376,0.094 -19.544,-3.63 -24.514,-11.187l0,24.012c0,2.987 -1.772,6.17 -5.331,9.548c-4.971,4.673 -11.368,6.914 -19.184,6.711l0,-68.587c-0.454,-4.931 7.715,-14.205 17.051,-14.205c-11.72,-2.383 -17.403,-8.356 -17.051,-17.905l36.768,0c4.382,0 8.709,0.4 12.966,1.2c15.867,2.979 23.808,10.787 23.808,23.416l0,0.682c1.106,-1.168 2.635,-2.281 4.595,-3.371c3.676,-2.085 7.463,-3.426 11.375,-4.022c-4.03,-0.298 -7.699,-2.14 -11.015,-5.519c-2.845,-2.884 -4.915,-6.169 -6.216,-9.854l-0.894,-2.532l39.44,0c11.485,0 20.775,2.689 27.885,8.059c4.1,3.167 7.001,6.946 8.702,11.32c1.403,-5.433 5.095,-10.058 11.077,-13.86c7.103,-4.578 15.452,-6.859 25.039,-6.859c9.596,0 17.945,2.336 25.048,7.016c1.262,0.807 2.422,1.662 3.48,2.563l-2.838,-4.664c3.442,-2.979 8.295,-4.515 14.558,-4.617c3.317,-0.11 6.711,0.988 10.231,3.277c3.12,1.991 5.496,4.374 7.126,7.157l12.285,21.487l23.095,-32.227c9.227,5.966 13.93,11.751 14.134,17.434c0.134,3.278 -1.387,7.009 -4.531,11.18l-17.788,24.2l32.432,47.435c-4.414,1.098 -7.675,1.843 -9.776,2.243c-2.799,0.494 -6.075,0.243 -9.823,-0.745c-5.558,-1.498 -9.87,-4.383 -12.927,-8.655l-16.11,-22.373l-24.161,32.219c-6.358,-2.806 -10.333,-7.133 -11.924,-12.997c-1.874,2.422 -4.359,4.617 -7.463,6.585c-7.103,4.578 -15.452,6.867 -25.048,6.867c-9.587,0 -17.936,-2.289 -25.039,-6.867c-4.233,-2.689 -7.322,-5.793 -9.266,-9.305c0,0.399 -0.008,0.823 -0.039,1.246c-0.471,5.974 -4.202,11.54 -11.187,16.714l-41.565,-46.096l0,25.062c0,11.932 -8.349,17.898 -25.047,17.898l0,-44.457Zm124.404,13.131l0,-38.045c0,-3.378 -1.003,-6.357 -3.018,-8.952c-2.25,-2.979 -5.331,-4.469 -9.243,-4.469c-3.903,0 -6.984,1.49 -9.235,4.469c-2.014,2.595 -3.017,5.574 -3.017,8.952l0,38.045c0,3.386 1.003,6.365 3.017,8.952c2.251,2.979 5.332,4.476 9.235,4.476c3.912,0 6.993,-1.497 9.243,-4.476c2.015,-2.587 3.018,-5.566 3.018,-8.952Zm-49.027,-27.266c-0.855,1.992 -1.945,3.873 -3.262,5.637c-4.022,5.464 -9.588,8.796 -16.69,9.995l19.716,20.139c0.118,0.126 0.236,0.251 0.345,0.377c-0.071,-0.706 -0.109,-1.427 -0.109,-2.164l0,-33.984Zm73.212,-20.86c0.22,1.231 0.329,2.501 0.329,3.818l0,47.248l16.981,-22.633l-17.31,-28.433Zm-229.942,-86.311c-5.234,5.008 -10.209,10.206 -14.904,15.572c-15.278,29.953 -23.953,64.262 -23.953,100.727c0,2.371 0.037,4.734 0.11,7.086c0.301,-2.45 0.639,-4.91 1.013,-7.38c0.064,-43.339 14.054,-83.42 37.734,-116.005Zm46.734,82.971l-12.253,0l0,23.722c0,3.379 1.003,6.366 3.018,8.953c2.249,2.979 5.331,4.476 9.235,4.476c3.433,0 6.342,-1.074 8.709,-3.214c2.36,-2.14 3.552,-4.641 3.552,-7.526l0,-15.663c0,-6.17 -2.964,-9.658 -8.882,-10.45c-1.427,-0.196 -2.548,-0.297 -3.379,-0.298Zm74.059,0l-14.926,0l0,13.421c0,3.881 1.301,7.362 3.912,10.442c2.955,3.583 6.632,5.323 11.014,5.237c4.375,-0.11 7.636,-1.897 9.768,-5.378c1.89,-2.987 2.721,-6.42 2.485,-10.301c-0.235,-3.473 -1.301,-6.459 -3.198,-8.952c-2.25,-2.979 -5.268,-4.468 -9.055,-4.469Zm218.207,-101.84c3.357,6.542 6.365,13.361 9.003,20.43c17.254,20.847 29.931,44.689 36.771,70.444c-4.491,-35.354 -20.879,-66.48 -45.774,-90.874Zm-69.54,-30.143c11.149,7.375 21.509,15.849 30.925,25.265c25.369,25.369 43.891,57.587 52.55,93.638c-0.121,-3.391 -0.317,-6.753 -0.584,-10.084c-8.265,-31.796 -23.336,-60.591 -43.441,-84.503c-12.032,-9.279 -25.255,-17.447 -39.45,-24.316Zm-287.856,52.769c-8.735,10.127 -16.322,21.024 -22.596,32.55c5.434,-8.316 11.475,-16.355 18.067,-24.063c1.452,-2.868 2.963,-5.697 4.529,-8.487Zm357.449,-0.015c0.968,1.725 1.915,3.464 2.84,5.218c-0.372,-1.08 -0.753,-2.154 -1.142,-3.222c-0.561,-0.669 -1.127,-1.334 -1.698,-1.996Zm-288.764,-52.305c-13.851,6.777 -26.766,14.795 -38.541,23.877c-2.76,3.282 -5.424,6.656 -7.989,10.118c11.226,-9.734 23.44,-18.665 36.479,-26.638c3.055,-2.333 6.179,-4.578 9.369,-6.734c0.227,-0.208 0.454,-0.416 0.682,-0.623Zm247.449,-0.462c3.313,3.096 6.532,6.304 9.653,9.616c3.037,3.223 5.98,6.546 8.825,9.963c2.262,1.791 4.482,3.621 6.659,5.488c2.693,2.311 5.32,4.678 7.879,7.101c-3.417,-6.484 -7.195,-12.671 -11.312,-18.533c-6.819,-4.966 -14.068,-9.522 -21.704,-13.635Zm-189.958,-38.916c-24.612,7.136 -47.326,19.163 -67.158,35.035c10.272,-5.391 21.074,-10.11 32.322,-14.085c11.13,-8.042 22.788,-15.07 34.836,-20.95Zm129.505,17.514c15.028,4.586 29.34,10.477 42.749,17.513c-4.158,-3.327 -8.443,-6.485 -12.845,-9.465c-9.574,-3.307 -19.562,-6.005 -29.904,-8.048Zm-38.929,-29.952c26.859,5.267 51.908,16.011 74.081,31.1c10.475,3.762 20.465,8.235 29.89,13.36c-22.239,-22.505 -50.822,-37.655 -83.735,-42.681c-6.568,-1.003 -13.32,-1.604 -20.236,-1.779Zm39.596,21.668c-23.854,-10.738 -50.086,-16.678 -77.619,-16.678c-2.947,0 -5.88,0.068 -8.796,0.203c-17.402,4.284 -34.361,11.092 -50.496,20.054c18.884,-4.32 38.719,-6.627 59.175,-6.636c9.876,-1.035 19.549,-1.539 28.984,-1.539c16.871,0 33.187,1.581 48.752,4.596Z" style="fill:#0095da;"/></svg>