<svg viewBox="0 0 380 486" xmlns="http://www.w3.org/2000/svg" fill-rule="evenodd" clip-rule="evenodd" stroke-linejoin="round" stroke-miterlimit="1.414">
  <path d="M1.574 299.91L0 288.988l84.047-8.037c1.023-7.3 5.59-14.057 12.97-17.873 4.707-2.44 9.876-3.32 14.847-2.84l79.43-216.048c-3.514-2.088-6.53-5.02-8.678-8.69-6.775-11.597-2.287-26.16 10.034-32.533 12.32-6.373 27.804-2.14 34.588 9.455 5.666 9.687 3.456 21.453-4.614 28.774l124.258 196.552c11.342-3.362 24.008 1.14 29.96 11.32 6.776 11.594 2.288 26.16-10.033 32.533-12.32 6.372-27.808 2.142-34.583-9.456-.706-1.205-1.285-2.443-1.752-3.7l-195.93 18.746c-1.02 7.298-5.592 14.055-12.97 17.87-4.71 2.437-9.882 3.32-14.85 2.84L57.567 441.61c3.514 2.09 6.53 5.022 8.677 8.69 6.784 11.595 2.288 26.163-10.034 32.53-12.32 6.378-27.803 2.142-34.582-9.45-6.784-11.597-2.288-26.163 10.03-32.533 4.708-2.434 9.874-3.32 14.845-2.838l49.16-133.71c-3.513-2.093-6.528-5.02-8.676-8.692-.703-1.204-1.286-2.443-1.75-3.7L1.574 299.91zm216.602 70.69c3.623 0 6.565 2.942 6.565 6.566 0 3.623-2.94 6.565-6.564 6.565s-6.566-2.94-6.566-6.564 2.942-6.565 6.566-6.565zm23.424 0c3.624 0 6.566 2.942 6.566 6.566 0 3.623-2.942 6.565-6.566 6.565-3.623 0-6.565-2.94-6.565-6.564s2.942-6.565 6.565-6.565zm23.425 0c3.623 0 6.565 2.942 6.565 6.566 0 3.623-2.942 6.565-6.565 6.565-3.624 0-6.566-2.94-6.566-6.564s2.94-6.565 6.565-6.565zM149.03 192.843l-26.102 70.994c3.51 2.09 6.53 5.025 8.675 8.695.703 1.205 1.285 2.443 1.75 3.7l108.37-10.366c-2.264-1.098-4.51-2.242-6.734-3.43-13.418-7.17-25.878-15.787-37.32-25.643-18.738-12.07-35-26.938-48.64-43.948zm112.978 71.082l-1.15-.267.796.3.354-.033zm-105.114-92.47l-.176.48c12.65 21.773 28.316 41.123 46.73 57.088 4.218 2.698 8.566 5.246 13.042 7.638 28.764 15.37 59.96 22.723 91.527 22.863l14.3-1.368c-10.5-2.884-21.008-6.51-31.458-10.89-22.622-5.277-45.024-13.602-66.61-25.136-25.702-13.733-48.265-30.956-67.356-50.677zm177.44 67.965c-17.944-.347-35.985-2.786-53.76-7.426 3.574 1.75 7.16 3.405 10.752 4.97 15.016 3.62 30.137 5.843 45.174 6.716.11-.104.22-.207.332-.31l-2.498-3.95zm-6.245-9.88L212.573 46.817c-3.358.998-6.832 1.304-10.214.976l-33.035 89.85c18.097 24.67 39.947 47.118 65.172 66.03 29.917 15.927 61.84 24.33 93.592 25.867zM162.01 157.534l-1.22 3.315c19.074 20.466 41.947 38.293 68.234 52.34 2.45 1.307 4.908 2.572 7.377 3.795-2.364-1.663-4.718-3.368-7.062-5.117-26.444-14.18-49.028-32.753-67.328-54.334z" fill="#0095da"/>
</svg>
