<svg viewBox="0 0 72 64" xmlns="http://www.w3.org/2000/svg" fill-rule="evenodd" clip-rule="evenodd" stroke-linejoin="round" stroke-miterlimit="1.414">
  <path d="M36.11 0c.5.002 1.003.012 1.504.032.952.037 1.902.108 2.85.21 2.718.3 5.408.875 8.008 1.725 2.567.84 5.048 1.948 7.38 3.313 3.125 1.83 5.983 4.123 8.4 6.82.67.746 1.303 1.522 1.9 2.325 1.1 1.486 2.072 3.068 2.89 4.727.945 1.92 1.682 3.943 2.18 6.024.592 2.466.85 5.012.76 7.547-.053 1.532-.233 3.06-.536 4.562-.287 1.428-.685 2.833-1.184 4.2-.78 2.134-1.806 4.175-3.043 6.08-.44.676-.908 1.336-1.4 1.978-.256.334-.52.664-.788.988-.054.066-.11.13-.163.196-.038.043-.074.086-.11.13-.02.02-.04.04-.056.064-.05.07-.076.12-.07.208.002.066.024.106.05.16.04.088.08.174.123.26.157.322.326.638.508.946.26.443.546.87.858 1.28.305.4.636.782.99 1.142.337.344.696.668 1.074.97.196.156.398.306.603.45l.134.092.09.06.128.088c.06.042.118.088.175.135.246.21.452.463.6.75.12.223.2.466.243.716.054.32.044.65-.026.966-.066.294-.188.576-.357.826-.157.232-.354.436-.58.6-.263.192-.563.33-.878.405-.055.013-.11.024-.165.034-.047.008-.095.014-.142.02l-.292.04c-.322.04-.645.074-.97.1-.835.07-1.675.1-2.514.083-2.19-.04-4.378-.377-6.46-1.06-.342-.11-.68-.232-1.014-.363-.627-.244-1.242-.52-1.84-.83-.3-.156-.593-.32-.883-.49l-.126-.073c-.055-.034-.11-.07-.16-.11-.118-.094-.222-.205-.308-.328-.11-.16-.19-.343-.234-.533-.042-.185-.05-.376-.02-.563.022-.143.065-.282.126-.412.077-.163.183-.313.312-.44.123-.12.267-.22.423-.294.243-.113.515-.16.782-.137.13.012.258.04.38.086.06.022.118.05.175.078l.052.03c.038.02.076.044.115.067.04.025.08.05.122.073.135.08.27.156.41.23.442.24.897.46 1.36.658.826.35 1.68.632 2.552.847.905.223 1.827.374 2.754.46.623.056 1.248.084 1.873.084.178 0 .356-.004.535-.008l.195-.006c.02 0 .042 0 .063-.003.04-.006.076-.018.114-.027l.094-.07.06-.098.02-.116-.03-.113-.07-.094c-.22-.196-.433-.398-.64-.607-.402-.407-.78-.836-1.133-1.285-.802-1.024-1.468-2.15-2.004-3.335-.123-.27-.238-.543-.348-.82l-.093-.238c-.018-.048-.037-.096-.053-.145-.018-.047-.03-.094-.043-.142-.037-.154-.05-.312-.04-.47.014-.18.06-.358.134-.523.055-.12.125-.232.208-.334l.043-.052c.025-.026.05-.052.073-.08l.166-.18c.162-.182.324-.366.483-.55.49-.57.958-1.157 1.402-1.76.698-.95 1.34-1.942 1.91-2.972.65-1.164 1.21-2.377 1.673-3.626.38-1.022.692-2.07.936-3.132.233-1.015.403-2.045.51-3.08.194-1.905.175-3.83-.06-5.73-.18-1.433-.482-2.85-.903-4.233-.33-1.086-.732-2.15-1.2-3.182-.757-1.664-1.686-3.25-2.757-4.73-.944-1.305-2-2.53-3.142-3.663-1.882-1.868-4.006-3.488-6.288-4.84-1.132-.67-2.303-1.273-3.504-1.81-2.636-1.175-5.415-2.022-8.253-2.537-2.22-.402-4.473-.6-6.728-.6-2.254 0-4.51.198-6.727.6-2.743.497-5.43 1.306-7.986 2.42-.974.425-1.928.894-2.86 1.407-1.926 1.062-3.752 2.31-5.43 3.735-2.067 1.756-3.91 3.78-5.43 6.03-.453.67-.877 1.36-1.27 2.068-.48.862-.91 1.75-1.29 2.66-.484 1.158-.885 2.35-1.195 3.568-.397 1.554-.644 3.146-.738 4.747-.114 1.955 0 3.923.34 5.85.207 1.183.5 2.35.874 3.49.37 1.136.822 2.244 1.345 3.318.71 1.456 1.552 2.846 2.505 4.155.895 1.228 1.887 2.385 2.96 3.46 1.09 1.097 2.265 2.11 3.506 3.033 1.064.792 2.175 1.52 3.325 2.177.947.543 1.92 1.04 2.915 1.49 2.718 1.232 5.593 2.112 8.53 2.637 2.28.406 4.597.6 6.912.582 2.028-.015 4.055-.19 6.055-.53.785-.135 1.565-.295 2.34-.48.096-.022.193-.047.29-.07.05-.01.1-.02.15-.027.112-.015.225-.017.337-.006.232.023.457.1.654.223.193.12.36.283.48.475.094.145.16.306.2.475.037.16.047.324.03.487-.017.19-.072.374-.16.543-.088.174-.21.33-.358.46-.108.093-.23.172-.36.23-.064.03-.13.055-.197.075l-.057.016c-2.817.702-5.71 1.08-8.613 1.154-1.435.037-2.87 0-4.302-.113-1.72-.136-3.433-.38-5.122-.736-2.103-.442-4.17-1.054-6.17-1.835-2.462-.96-4.824-2.175-7.028-3.63-1.26-.834-2.468-1.745-3.61-2.73-1.353-1.166-2.616-2.437-3.766-3.803-1.344-1.596-2.535-3.323-3.536-5.155-.584-1.068-1.103-2.17-1.55-3.302-.45-1.134-.826-2.295-1.126-3.476-.32-1.256-.554-2.535-.698-3.823C0 33.344-.043 31.78.04 30.225c.09-1.667.33-3.326.713-4.95.386-1.636.918-3.236 1.583-4.778.81-1.877 1.816-3.668 2.986-5.344 1.07-1.533 2.277-2.97 3.594-4.297 1.757-1.77 3.71-3.342 5.8-4.7 1.71-1.108 3.512-2.072 5.38-2.886C23.27 1.88 26.635.932 30.065.43c1.275-.187 2.56-.313 3.845-.378.424-.02.847-.036 1.27-.044.232-.005.464-.007.696-.008h.233zm-.08 28.563c1.76 0 3.19 1.43 3.19 3.19s-1.43 3.19-3.19 3.19-3.19-1.43-3.19-3.19 1.43-3.19 3.19-3.19zm13.733 0c1.76 0 3.19 1.43 3.19 3.19s-1.43 3.19-3.19 3.19-3.19-1.43-3.19-3.19 1.43-3.19 3.19-3.19zm-27.465 0c1.76 0 3.19 1.43 3.19 3.19s-1.43 3.19-3.19 3.19-3.19-1.43-3.19-3.19 1.43-3.19 3.19-3.19z" fill="#0095da"/>
</svg>
