<svg viewBox="0 0 85 68" xmlns="http://www.w3.org/2000/svg" fill-rule="evenodd" clip-rule="evenodd" stroke-linejoin="round" stroke-miterlimit="1.414">
  <path d="M28.067 41.406h-10.88l-12.81 23.29h75.847l-12.81-23.29h-10.88v-2.588h12.41L84.6 67.285H0l15.657-28.467h12.41v2.588zM42.27 55.098l1.003-1.226c.703-.858 17.2-21.157 17.142-34.438C60.37 8.72 52.245 0 42.3 0c-9.99 0-18.115 8.72-18.115 19.44 0 13.275 16.386 33.57 17.084 34.426l1 1.232zm.03-52.51c8.523 0 15.488 7.562 15.527 16.857C57.872 30 45.87 46.31 42.275 50.958c-3.576-4.652-15.502-20.96-15.502-31.52 0-9.29 6.965-16.85 15.527-16.85zm0 9.116c-2.76 0-5 2.24-5 5s2.24 5 5 5 5-2.24 5-5-2.24-5-5-5z" fill="#0095da"/>
</svg>
