<svg viewBox="0 0 450 424" xmlns="http://www.w3.org/2000/svg" fill-rule="evenodd" clip-rule="evenodd" stroke-linejoin="round" stroke-miterlimit="1.414">
  <path d="M201.568 410.586c3.624 0 6.567 2.942 6.567 6.567s-2.943 6.568-6.567 6.568c-3.625 0-6.568-2.942-6.568-6.567s2.943-6.567 6.568-6.567zm23.432 0c3.625 0 6.568 2.942 6.568 6.567s-2.943 6.568-6.568 6.568c-3.625 0-6.568-2.942-6.568-6.567s2.943-6.567 6.568-6.567zm23.432 0c3.625 0 6.568 2.942 6.568 6.567s-2.943 6.568-6.568 6.568c-3.624 0-6.567-2.942-6.567-6.567s2.943-6.567 6.567-6.567zm-28.356-57.008v-114.95c.15-2.832 2.428-5.052 5.437-4.894 2.446.387 4.275 2.373 4.407 4.895v114.948l34.79-37.816c1.005-1.026 1.64-1.596 3.797-1.586 2.368.157 2.586.732 3.27 1.4 1.843 1.805 2.136 4.588.18 6.85L228.62 369.53c-2.12 2.664-5.427 2.23-7.244 0l-43.335-47.103c-1.578-1.826-1.35-2.575-1.29-3.613.152-2.674 1.415-4.847 5.345-4.622 1.225.146 2.326.686 3.19 1.57l34.79 37.816zM16.678 201.223c.654 36.255 30.362 65.443 66.702 65.444l98.056.085c4.248.223 7.593 3.305 8.245 7.424.267 5.068-3.473 8.907-8.244 9.157H83.324C37.208 283.333 0 246.023 0 200c0-34.18 20.66-63.64 50.198-76.474-.13-2.27-.198-4.557-.198-6.86C50 52.234 102.233 0 166.667 0c43.546 0 81.52 23.857 101.563 59.215C280.344 53.312 293.952 50 308.333 50c44.145 0 81 31.204 89.715 72.76C428.555 135.14 450 165.06 450 200c0 45.93-37.305 83.333-83.324 83.333h-99.042c-4.77-.25-8.51-4.09-8.245-9.157.65-4.12 3.996-7.2 8.244-7.424l98.986-.085c36.845 0 66.713-29.923 66.713-66.667 0-31.133-21.425-57.282-50.26-64.615-.96-11.583-4.552-22.418-10.177-31.907-14.79 18.406-32.263 34.96-52.358 49.2-7.765 5.5-15.832 10.612-24.183 15.296-18.405 10.324-37.787 18.446-57.857 24.455-69.66 31.91-148.027 33.226-221.82 8.793zm42.05-2.613c21.272 4.31 42.723 6.382 64.023 6.1-16.087-1.08-32.264-3.236-48.41-6.436-5.213.224-10.418.336-15.612.336zM342.42 74.842c-7.05 5.71-14.4 11.215-22.042 16.5-23.07 22.494-49.542 42.455-79.153 59.065-35.954 20.168-73.71 33.81-111.778 41.293 35.813 1.8 71.05-1.997 104.29-11.83 6.304-2.914 12.532-6.09 18.673-9.536 40.153-22.523 72.488-54.193 96.367-91.84-2.053-1.316-4.174-2.536-6.357-3.652zM38.813 175.578c11.246 3.424 22.553 6.332 33.878 8.71 54.54-2.19 110.013-17.177 161.656-46.145 3.358-1.884 6.675-3.812 9.95-5.785-3.71 1.52-7.463 2.998-11.258 4.43-61.43 34.34-129.29 46.393-194.225 38.79zm262.13-108.552c-15.056 1.473-28.808 7.398-39.92 16.44-13.69-38.908-50.766-66.8-94.356-66.8-55.23 0-100 44.772-100 100 0 6.276.578 12.415 1.683 18.37-11.5 2.65-21.86 8.277-30.236 16.018 62.596 4.826 127.713-3.37 189.197-26.416 28.058-15.793 52.694-35.322 73.633-57.612zm58.46 19.715c-12.073 18.87-26.194 36.296-42.285 51.914 18.272-13.53 34.164-29.14 47.62-46.42-1.684-1.92-3.465-3.754-5.335-5.493zM318.7 67.38c-7.46 8.558-15.416 16.765-23.856 24.575 4.716-2.872 9.33-5.824 13.843-8.854 5.054-4.856 9.94-9.835 14.658-14.93-1.53-.312-3.08-.576-4.644-.792z" fill="#0095da"/>
</svg>
