<svg viewBox="0 0 36 27" xmlns="http://www.w3.org/2000/svg" fill-rule="evenodd" clip-rule="evenodd" stroke-linejoin="round" stroke-miterlimit="1.414">
  <path d="M34.3 27H1.66c-1.07-.05-1.295-.555-1.5-1.033-.47-1.086.122-2.48 1.5-2.544H34.3l.145.007c1.778.252 1.605 1.37 1.487 2.092-.136.83-.638 1.43-1.632 1.478zm0-11.71H7.733c-.425-.02-.54-.08-.752-.196-1.264-.696-.98-3.31.753-3.383H34.3l.13.007c1.636.21 2.226 3.472-.13 3.572zm0-11.713H1.66c-.94-.044-1.02-.32-1.27-.64C-.42 1.894.17.07 1.66 0H34.3l.145.007c.987.14 1.182.62 1.357 1.026.47 1.086-.123 2.48-1.502 2.544z" fill="#0095da"/>
</svg>
